<?xml version="1.0" standalone="no"?>
<!DOCTYPE svg PUBLIC "-//W3C//DTD SVG 20010904//EN"
 "http://www.w3.org/TR/2001/REC-SVG-20010904/DTD/svg10.dtd">
<svg version="1.0" xmlns="http://www.w3.org/2000/svg"
 width="259.000000pt" height="194.000000pt" viewBox="0 0 259.000000 194.000000"
 preserveAspectRatio="xMidYMid meet">

<g transform="translate(0.000000,194.000000) scale(0.100000,-0.100000)"
fill="#000000" stroke="none">
<path d="M0 1736 c0 -113 3 -207 8 -209 11 -7 27 15 30 43 2 14 7 29 12 34 12
12 30 -2 23 -19 -4 -12 3 -15 30 -15 63 0 60 40 -2 42 -41 1 -35 20 13 35 35
12 40 11 81 -17 49 -33 59 -55 48 -97 -4 -15 -6 -36 -4 -45 2 -20 -18 -63 -26
-54 -13 13 -35 -29 -37 -70 -2 -49 -15 -64 -57 -64 -38 0 -94 21 -79 30 9 6 9
12 0 30 -13 24 -4 44 10 20 5 -8 15 -24 23 -35 15 -19 16 -18 37 18 12 20 27
37 33 37 6 0 3 8 -6 18 -12 11 -33 17 -65 17 -46 0 -47 1 -50 33 -2 17 -8 32
-14 32 -12 0 -7 -138 6 -159 6 -10 5 -12 -2 -7 -9 5 -12 -32 -11 -137 l0 -145
37 -6 c20 -3 51 -6 67 -6 17 0 43 -7 59 -15 27 -14 30 -14 47 7 11 11 22 18
26 15 9 -10 -17 -56 -36 -62 -26 -9 -55 -57 -53 -87 3 -33 -15 -38 -21 -5 -4
19 -4 18 -6 -5 -1 -38 34 -40 41 -3 3 14 1 25 -5 25 -6 0 -8 3 -5 6 3 3 37
-11 74 -30 38 -19 65 -35 61 -36 -4 0 -30 11 -57 25 -27 14 -51 25 -53 25 -2
0 -2 -11 1 -25 8 -46 -11 -55 -99 -48 l-79 6 0 -274 c1 -243 2 -272 15 -255 8
11 15 25 16 30 0 6 6 -11 14 -39 7 -27 13 -81 12 -119 0 -46 3 -71 11 -74 7
-2 12 -16 12 -30 0 -15 3 -37 6 -49 l6 -23 698 0 c384 0 700 4 702 8 2 4 19
15 38 25 30 14 28 19 -5 17 -3 -1 -13 7 -22 15 -14 14 -17 53 -20 273 -2 141
-3 268 -3 282 1 14 3 93 6 176 l5 152 46 -18 c26 -10 57 -30 68 -44 21 -26 21
-30 9 -114 -7 -47 -11 -109 -9 -137 2 -27 -4 -86 -12 -130 -19 -97 -18 -205 3
-299 9 -39 18 -91 20 -116 9 -98 -3 -90 149 -90 l134 0 3 28 4 27 14 -27 13
-28 119 0 c92 0 118 3 118 13 0 8 7 28 16 46 13 25 17 69 18 197 3 175 2 179
-49 199 -19 7 -19 8 5 15 14 5 18 9 10 9 -13 1 -13 2 0 11 8 5 11 10 5 10 -5
0 -4 4 3 9 12 7 11 19 -3 72 -9 35 -20 121 -25 192 -5 70 -11 131 -14 136 -3
5 4 11 15 14 25 7 69 -19 69 -39 0 -7 7 -17 16 -22 9 -5 17 -21 17 -36 l0 -26
18 21 c11 12 20 38 20 58 1 32 3 30 11 -17 10 -54 5 -88 -11 -78 -4 3 -9 -35
-10 -86 0 -50 -5 -96 -10 -102 -16 -20 -20 -181 -6 -223 9 -23 14 -83 15 -153
0 -63 3 -139 6 -167 l7 -53 79 0 c43 0 86 4 96 9 9 5 34 17 54 27 44 21 46 28
41 119 -3 66 -2 68 11 45 14 -22 15 5 16 273 l0 299 -88 -3 c-48 -2 -93 0 -98
4 -16 9 -27 138 -15 169 8 21 18 26 63 32 143 18 138 16 138 46 0 19 -6 29
-20 33 -16 4 -20 14 -20 52 0 39 3 48 21 52 20 6 21 11 17 104 -2 65 -8 103
-17 111 -11 11 -12 9 -6 -12 4 -14 10 -31 13 -39 4 -9 1 -12 -7 -7 -7 5 -10 2
-9 -6 2 -7 -5 -12 -14 -12 -10 1 -16 -2 -13 -6 6 -9 -25 -23 -33 -15 -3 3 1 5
9 5 12 0 12 2 0 9 -11 7 -11 16 3 57 21 61 21 59 -11 89 -25 24 -33 26 -80 21
-48 -6 -54 -4 -69 19 -9 14 -15 27 -13 28 2 2 16 8 32 15 17 7 27 19 27 33 0
19 -4 21 -36 16 -29 -5 -35 -3 -30 9 3 9 6 19 6 24 0 5 16 18 35 30 29 18 42
20 72 13 31 -7 40 -16 62 -61 14 -28 29 -52 32 -52 11 0 2 115 -11 136 -8 12
-29 29 -47 38 -95 45 -220 -20 -204 -106 16 -79 46 -158 61 -158 9 0 21 -15
28 -33 22 -62 17 -74 -48 -109 -33 -18 -60 -38 -60 -45 0 -8 7 -10 18 -6 25 9
12 -2 -27 -22 -20 -10 -30 -12 -26 -4 5 7 4 10 -2 6 -5 -3 -27 9 -48 28 -21
19 -45 35 -54 35 -14 0 -14 -2 -1 -10 11 -7 7 -9 -16 -7 -20 1 -30 6 -27 15 5
10 -38 19 -70 13 -5 -1 -17 9 -28 21 l-19 23 5 -25 c8 -34 -24 -65 -56 -55
-16 5 -19 4 -14 -5 6 -10 0 -11 -26 -6 -19 4 -40 9 -46 10 -7 1 -20 11 -29 22
-8 10 -12 12 -8 4 5 -10 0 -9 -14 4 -12 11 -22 29 -21 40 1 20 2 19 15 -24 4
-12 6 -12 14 -1 5 9 14 11 26 6 43 -19 65 -15 101 14 20 17 39 28 43 26 4 -2
7 9 7 25 0 16 -4 27 -9 24 -4 -3 -8 2 -8 10 0 9 7 16 15 16 9 0 12 6 8 15 -5
14 -8 14 -29 0 -39 -25 -96 -19 -125 13 -21 22 -49 72 -49 86 0 2 18 6 41 9
47 6 54 11 46 32 -4 9 -19 15 -37 15 -25 0 -31 4 -28 17 8 41 112 61 148 28
31 -28 25 -45 -14 -45 -43 0 -54 -23 -19 -39 21 -10 29 -9 44 5 18 16 19 16
19 -9 0 -21 4 -25 18 -20 16 6 16 5 0 -14 -24 -27 -22 -36 4 -22 19 9 21 9 11
-2 -25 -26 -12 -26 16 0 16 15 30 36 32 46 3 11 15 25 29 32 14 7 37 22 51 34
31 25 98 51 117 44 6 -2 12 3 12 11 0 11 6 15 20 11 13 -3 20 0 20 9 0 8 7 14
15 14 8 0 15 5 15 10 0 6 7 10 15 10 9 0 12 6 9 15 -5 11 1 15 26 15 21 0 29
-4 24 -12 -5 -7 -3 -8 5 -3 7 4 25 11 39 16 25 8 25 9 -5 4 -32 -4 -45 8 -21
19 7 3 1 3 -14 0 -16 -4 -28 -4 -28 -1 0 10 93 48 107 43 8 -3 25 5 39 19 14
14 29 25 34 25 6 0 10 11 10 25 0 16 6 25 15 25 8 0 15 7 15 15 0 13 -81 15
-665 15 -366 0 -665 -3 -665 -8 0 -4 7 -18 17 -31 27 -40 62 -114 57 -122 -2
-4 9 -18 26 -30 16 -12 35 -39 41 -58 7 -20 18 -40 25 -44 8 -4 14 -15 14 -23
0 -8 6 -14 13 -13 13 2 26 -2 100 -34 26 -11 47 -26 47 -33 0 -7 13 -15 30
-19 41 -9 43 -17 14 -48 -16 -17 -24 -38 -24 -62 0 -19 -4 -35 -10 -35 -5 0
-10 -4 -10 -10 0 -5 7 -10 15 -10 9 0 18 -12 22 -30 3 -16 11 -30 17 -30 6 0
0 -6 -14 -14 -14 -7 -30 -9 -36 -4 -14 10 -38 -16 -56 -61 l-14 -34 -37 45
c-34 41 -79 76 -61 47 4 -8 0 -7 -15 0 -11 7 -21 18 -21 26 0 8 -8 15 -17 16
-12 0 -13 2 -5 6 10 4 10 8 1 19 -6 8 -9 14 -5 14 3 0 -2 9 -11 19 -9 11 -22
17 -29 14 -9 -3 -14 2 -14 16 0 22 15 29 23 11 3 -6 4 -5 3 2 -3 15 -19 23
-73 37 -32 9 -44 18 -49 36 -3 14 -10 25 -15 25 -16 0 -42 65 -40 100 4 68 96
112 149 73 35 -26 43 -58 12 -50 -28 7 -40 -21 -15 -39 24 -18 41 -6 18 12
-17 14 -17 14 2 12 11 -2 23 -12 27 -23 4 -14 6 -9 7 17 1 27 -8 48 -32 80
-44 57 -74 67 -134 45 -25 -9 -47 -16 -47 -15 -1 2 -18 29 -39 60 -20 32 -37
62 -37 68 0 6 -6 13 -14 16 -8 3 -16 18 -20 35 l-6 29 -520 0 -520 0 0 -204z
m2353 27 c-7 -2 -19 -2 -25 0 -7 3 -2 5 12 5 14 0 19 -2 13 -5z m-1668 -204
c19 -17 32 -35 30 -40 -3 -5 -2 -17 4 -27 8 -14 6 -18 -10 -19 -10 -1 -21 2
-24 8 -4 5 -14 9 -23 9 -23 -1 26 -29 51 -30 9 0 17 -5 17 -12 0 -6 7 -20 17
-30 13 -14 14 -23 5 -40 -10 -22 -11 -21 -11 10 l-1 33 -37 -35 c-21 -20 -48
-36 -60 -36 -23 0 -33 20 -10 20 6 0 21 8 32 16 19 14 19 16 3 28 -10 7 -18
22 -18 34 0 15 -5 19 -20 15 -14 -4 -20 0 -20 11 0 9 -3 15 -7 15 -5 -1 -17
-1 -28 1 l-20 1 20 8 c11 5 27 6 35 4 8 -2 4 2 -10 11 -14 8 -35 12 -48 9 -20
-5 -21 -3 -14 18 20 55 94 64 147 18z m1242 15 c-3 -3 -12 -4 -19 -1 -8 3 -5
6 6 6 11 1 17 -2 13 -5z m-1336 -158 c-14 -17 -51 -9 -51 11 0 8 9 17 20 20
11 3 20 10 21 17 0 6 5 1 11 -11 8 -17 8 -26 -1 -37z m1893 19 c7 -20 -4 -47
-17 -42 -19 6 -19 27 0 27 15 0 16 2 3 10 -8 5 -24 7 -35 4 -16 -4 -17 -3 -5
5 22 15 47 13 54 -4z m-1829 -35 c3 -5 -1 -10 -10 -10 -9 0 -13 5 -10 10 3 6
8 10 10 10 2 0 7 -4 10 -10z m585 -30 c48 -25 66 -25 79 -2 13 22 14 1 1 -32
-9 -25 2 -38 13 -16 3 6 4 5 3 -2 -1 -7 -13 -14 -25 -16 -27 -4 -111 19 -111
31 0 4 -10 2 -22 -4 -13 -6 -20 -8 -15 -4 4 5 -3 20 -15 34 -13 14 -17 21 -9
14 11 -9 17 -9 28 3 19 18 26 18 73 -6z m495 -13 c6 -5 -1 -5 -13 -2 -21 6
-23 5 -13 -13 9 -16 7 -21 -9 -25 -15 -4 -19 0 -17 17 2 22 28 49 37 38 3 -4
10 -10 15 -15z m-991 -116 c8 -13 -10 -41 -27 -41 -6 0 -2 7 9 15 18 14 17 15
-8 4 -15 -7 -25 -16 -22 -20 3 -5 -16 -9 -41 -9 -25 0 -44 4 -41 9 4 5 0 12
-6 14 -7 3 -2 6 12 6 16 1 40 17 65 44 l40 42 6 -26 c3 -14 9 -31 13 -38z
m326 54 c-8 -9 -9 -15 -2 -15 6 0 14 5 17 10 3 6 11 10 16 10 6 0 -3 -11 -19
-25 -17 -14 -34 -25 -38 -25 -5 0 -2 5 6 11 11 8 12 12 3 16 -21 8 -15 33 8
33 18 0 19 -2 9 -15z m-790 -25 c0 25 23 -7 26 -36 2 -14 2 -25 1 -22 -1 2
-18 21 -37 43 -19 22 -25 31 -12 21 16 -14 22 -15 22 -6z m-183 -6 c-3 -3 -12
-4 -19 -1 -8 3 -5 6 6 6 11 1 17 -2 13 -5z m478 -52 c11 -6 15 -12 8 -12 -7 0
-22 10 -35 23 -13 12 -17 17 -8 11 8 -6 24 -16 35 -22z m-156 14 c-9 -10 -59
-14 -54 -5 4 5 18 9 32 9 15 0 24 -2 22 -4z m1791 -20 c0 -7 10 -25 21 -40 23
-30 23 -41 -1 -23 -22 17 -50 64 -43 71 11 11 23 7 23 -8z m-764 -37 c19 -11
34 -25 34 -31 0 -6 -12 -3 -26 7 -25 16 -25 16 -14 -4 6 -12 18 -21 26 -21 9
0 14 -6 12 -12 -10 -30 -40 -12 -58 35 -10 26 -16 47 -13 47 3 0 21 -9 39 -21z
m-1223 -14 c32 -22 36 -30 31 -53 -4 -15 -11 -31 -17 -37 -7 -7 -8 -4 -4 8 5
14 0 17 -33 17 l-40 0 0 45 c0 53 9 56 63 20z m667 15 c8 -5 12 -11 10 -14 -3
-2 -14 2 -24 10 -22 15 -10 19 14 4z m96 -65 c-5 -26 -14 -39 -33 -46 -51 -19
-70 11 -25 42 12 8 19 19 15 22 -3 4 2 7 13 7 16 0 17 2 4 10 -23 15 -27 12
-38 -17 l-10 -28 -1 27 c-1 17 7 33 21 42 21 15 24 14 42 -3 14 -15 17 -27 12
-56z m596 65 c16 0 -1 -52 -24 -77 -29 -31 -38 -29 -38 10 0 24 3 28 10 17 9
-13 14 -7 11 13 0 4 4 7 9 7 6 0 10 4 10 10 0 5 -7 7 -15 4 -11 -5 -13 -2 -9
10 4 10 13 15 21 12 8 -3 19 -6 25 -6z m-1482 -10 c0 -5 -4 -10 -10 -10 -5 0
-10 5 -10 10 0 6 5 10 10 10 6 0 10 -4 10 -10z m1810 0 c0 -5 -4 -10 -10 -10
-5 0 -10 5 -10 10 0 6 5 10 10 10 6 0 10 -4 10 -10z m148 -10 c24 -11 41 -24
37 -30 -8 -13 -4 -13 35 4 18 7 41 11 51 9 19 -5 32 -29 23 -44 -3 -5 -1 -9 5
-9 5 0 13 5 16 11 5 7 14 4 27 -8 17 -15 19 -27 15 -76 -6 -67 -10 -75 -32
-57 -10 8 -27 10 -52 5 -67 -13 -156 -8 -250 15 -115 27 -165 24 -79 -5 92
-31 85 -45 -23 -45 -55 0 -92 -4 -97 -11 -9 -16 -81 -4 -105 16 -28 26 -15 33
54 30 54 -3 56 -3 16 3 -52 9 -99 35 -99 57 0 8 8 15 18 16 11 1 9 4 -8 10
-18 6 -9 7 35 6 38 -2 64 2 70 10 8 10 21 9 64 -3 64 -19 253 -16 273 4 9 9 3
12 -30 12 l-42 0 0 50 c0 58 9 61 78 30z m-768 0 c0 -5 -4 -10 -9 -10 -5 0
-23 -3 -40 -6 -21 -4 -31 -3 -31 5 0 7 3 10 8 8 4 -3 16 -1 27 4 28 11 45 11
45 -1z m510 -29 c0 -11 -25 -21 -51 -21 -29 0 -23 18 9 23 15 2 30 5 35 6 4 0
7 -3 7 -8z m690 -15 c0 -2 -7 -6 -15 -10 -8 -3 -15 -1 -15 4 0 6 7 10 15 10 8
0 15 -2 15 -4z m-99 -20 c-14 -17 -70 -26 -78 -13 -3 6 -1 7 5 3 7 -4 12 -3
12 3 0 9 21 16 59 20 10 1 11 -2 2 -13z m-1751 -12 c0 -2 -7 -4 -15 -4 -8 0
-15 4 -15 10 0 5 7 7 15 4 8 -4 15 -8 15 -10z m138 -4 c70 -37 95 -70 53 -70
-10 0 -39 -3 -65 -6 l-46 -7 0 52 c0 29 5 51 10 51 6 0 27 -9 48 -20z m-279
-14 c-9 -10 -59 -14 -59 -6 0 5 12 10 28 12 28 4 39 1 31 -6z m1041 -36 c-8
-5 -19 -10 -25 -10 -5 0 -3 5 5 10 8 5 20 10 25 10 6 0 3 -5 -5 -10z m-80 -17
c13 -13 20 -184 9 -205 -8 -14 -22 -18 -74 -18 -35 0 -67 5 -70 11 -9 13 -7
208 2 222 7 11 121 3 133 -10z m-553 -29 c-3 -3 -12 -4 -19 -1 -8 3 -5 6 6 6
11 1 17 -2 13 -5z m98 -14 c42 -11 1 -11 -50 -1 -34 7 -35 9 -10 9 17 0 44 -4
60 -8z m-309 -40 l27 -11 -5 -94 c-7 -126 -9 -129 -118 -120 -133 10 -124 2
-117 112 4 53 12 102 18 109 14 17 154 19 195 4z m322 4 c24 -7 28 -25 10 -53
-9 -15 -9 -39 0 -102 6 -46 16 -126 22 -178 6 -52 20 -119 32 -150 17 -48 27
-117 16 -126 -2 -1 -15 -5 -30 -9 -36 -8 -57 23 -65 99 -3 30 -10 58 -14 61
-5 3 -9 16 -9 29 0 14 -11 57 -24 97 -13 40 -29 96 -35 125 -11 56 -4 180 12
201 10 13 48 16 85 6z m944 -101 c2 -20 9 -28 23 -28 11 -1 23 4 27 10 14 20
31 -11 19 -34 -11 -19 -20 -21 -109 -21 -63 0 -102 4 -110 12 -15 15 -16 48
-2 48 6 0 10 -4 10 -10 0 -18 20 -11 20 8 1 16 1 16 14 0 17 -23 25 -23 19 1
-6 24 35 41 48 20 12 -19 11 -29 -1 -29 -5 0 -10 5 -10 11 0 5 -5 7 -10 4 -16
-10 -1 -25 25 -25 20 0 23 4 19 30 -3 17 -1 30 5 30 5 0 11 -12 13 -27z m33
-1 c0 -18 -20 -15 -23 4 -3 10 1 15 10 12 7 -3 13 -10 13 -16z m-1761 -20 c0
-12 3 -19 7 -17 4 3 10 -2 13 -11 5 -13 1 -14 -27 -9 -38 9 -33 5 -42 33 -6
21 -4 23 15 17 17 -5 20 -4 15 5 -5 8 -3 11 6 8 8 -3 14 -14 13 -26z m36 -246
c0 -9 -30 -14 -35 -6 -4 6 3 10 14 10 12 0 21 -2 21 -4z m-164 -191 c-7 -36
-36 -70 -36 -41 0 22 34 99 38 86 2 -6 1 -26 -2 -45z m794 33 c0 -13 -9 -34
-20 -48 l-20 -25 0 48 c0 40 3 47 20 47 14 0 20 -7 20 -22z m-707 -11 c5 -14
-49 -74 -59 -64 -4 3 -3 22 0 42 6 28 11 35 30 35 13 0 26 -6 29 -13z m-19
-111 c-3 -9 -10 -16 -15 -16 -6 0 -5 9 1 21 13 24 24 20 14 -5z"/>
<path d="M640 1520 c-11 -8 -7 -9 15 -4 37 8 45 14 19 14 -10 0 -26 -5 -34
-10z"/>
<path d="M180 1135 c0 -8 3 -15 8 -16 4 0 18 -2 31 -5 24 -4 24 -4 6 16 -21
24 -45 26 -45 5z"/>
<path d="M2010 1120 c0 -15 7 -20 29 -20 39 0 47 14 15 29 -35 16 -44 14 -44
-9z"/>
<path d="M1665 1030 c11 -5 27 -9 35 -9 13 -1 13 0 0 9 -8 5 -24 9 -35 9 l-20
0 20 -9z"/>
<path d="M747 1040 c-4 -18 0 -20 36 -20 45 0 45 1 1 23 -30 16 -32 15 -37 -3z"/>
<path d="M1330 861 c0 -46 7 -51 15 -11 2 13 0 30 -5 39 -7 12 -9 4 -10 -28z"/>
<path d="M1360 867 c0 -20 4 -38 9 -41 10 -7 8 61 -3 71 -3 3 -6 -10 -6 -30z"/>
<path d="M1410 870 c8 -5 15 -17 15 -27 0 -10 8 -19 18 -21 14 -3 17 3 16 30
l-1 33 -8 -30 c-7 -28 -8 -29 -9 -5 -1 19 -7 26 -23 27 -18 2 -19 0 -8 -7z"/>
<path d="M1394 849 c-3 -6 -2 -15 4 -21 6 -6 11 -2 15 11 5 22 -7 29 -19 10z"/>
<path d="M508 814 c-5 -4 -8 -23 -8 -43 1 -30 2 -33 11 -18 11 19 8 73 -3 61z"/>
<path d="M537 803 c-7 -13 -1 -57 9 -60 5 -2 9 10 9 26 0 30 -9 48 -18 34z"/>
<path d="M679 803 c-1 -5 0 -18 0 -30 1 -11 -3 -24 -8 -28 -7 -4 -11 4 -11 19
0 14 -5 26 -11 26 -6 0 -9 -12 -7 -27 4 -39 43 -45 50 -8 3 14 1 28 -4 31 -4
3 -6 10 -3 15 4 5 4 9 1 9 -3 0 -6 -3 -7 -7z"/>
<path d="M610 782 c0 -5 -9 -12 -20 -15 -31 -8 -24 -27 10 -27 23 0 30 5 30
19 0 11 -4 23 -10 26 -5 3 -10 2 -10 -3z"/>
<path d="M1195 1627 c-22 -17 -12 -37 18 -37 25 1 57 22 57 39 0 15 -52 14
-75 -2z m50 -7 c3 -5 2 -10 -4 -10 -5 0 -13 5 -16 10 -3 6 -2 10 4 10 5 0 13
-4 16 -10z"/>
<path d="M186 1582 c-3 -4 4 -9 15 -9 23 -2 25 3 4 10 -8 4 -16 3 -19 -1z"/>
<path d="M2438 1583 c-10 -2 -18 -11 -18 -19 0 -23 57 -18 70 6 9 17 8 20 -12
19 -13 -1 -31 -3 -40 -6z"/>
<path d="M1270 1560 c-21 -13 -7 -22 27 -18 27 3 27 4 7 15 -12 7 -26 8 -34 3z"/>
<path d="M185 1550 c3 -5 11 -10 16 -10 6 0 7 5 4 10 -3 6 -11 10 -16 10 -6 0
-7 -4 -4 -10z"/>
<path d="M122 1528 c3 -7 15 -14 29 -16 24 -4 24 -3 4 12 -24 19 -38 20 -33 4z"/>
<path d="M1843 1533 c-25 -9 -13 -23 17 -21 17 1 30 5 30 9 0 9 -32 17 -47 12z"/>
<path d="M1260 1505 c7 -8 22 -15 34 -14 19 1 18 2 -4 9 -24 7 -23 7 10 12 33
5 33 5 -9 6 -38 2 -42 0 -31 -13z"/>
<path d="M90 1491 c5 -10 6 -21 3 -25 -3 -3 7 -6 22 -6 28 0 28 1 9 16 -18 14
-18 15 6 8 14 -3 22 -4 19 0 -4 4 -20 11 -38 16 -28 8 -30 7 -21 -9z"/>
<path d="M1843 1493 c-7 -2 -13 -13 -13 -24 0 -23 41 -27 59 -6 19 23 -13 44
-46 30z m40 -20 c-7 -2 -19 -2 -25 0 -7 3 -2 5 12 5 14 0 19 -2 13 -5z"/>
<path d="M2400 1477 c0 -14 4 -16 19 -7 32 16 35 30 7 28 -18 -2 -26 -8 -26
-21z"/>
<path d="M88 1313 c7 -3 16 -2 19 1 4 3 -2 6 -13 5 -11 0 -14 -3 -6 -6z"/>
<path d="M2582 1110 c0 -14 2 -19 5 -12 2 6 2 18 0 25 -3 6 -5 1 -5 -13z"/>
<path d="M20 905 c0 -19 5 -35 11 -35 6 0 9 7 6 15 -4 8 -2 17 3 20 11 7 2 35
-11 35 -5 0 -9 -16 -9 -35z"/>
<path d="M74 912 c18 -8 18 -9 3 -15 -9 -3 -17 -12 -17 -19 0 -9 3 -9 10 2 9
13 11 13 20 0 9 -12 10 -10 8 10 -2 16 -10 26 -23 27 -19 3 -19 3 -1 -5z"/>
<path d="M2413 835 c0 -22 2 -30 4 -17 2 12 2 30 0 40 -3 9 -5 -1 -4 -23z"/>
<path d="M2438 865 c-7 -7 3 -55 11 -55 8 0 7 47 -1 55 -2 3 -7 3 -10 0z"/>
<path d="M2493 853 c18 -5 24 -33 6 -33 -5 0 -7 5 -4 10 3 6 1 10 -4 10 -6 0
-11 -7 -11 -15 0 -9 9 -15 24 -15 19 0 22 4 18 25 -3 18 -10 25 -26 24 -17 -1
-17 -2 -3 -6z"/>
<path d="M2543 840 c1 -17 9 -26 25 -28 19 -3 22 1 21 25 -2 23 -2 24 -6 6 -2
-13 -9 -23 -14 -23 -5 0 -14 10 -19 23 -10 22 -10 22 -7 -3z"/>
<path d="M20 115 c0 -8 5 -15 10 -15 6 0 10 7 10 15 0 8 -4 15 -10 15 -5 0
-10 -7 -10 -15z"/>
</g>
</svg>
